<?xml version="1.0" encoding="UTF-8"?>
<svg version="1.1" viewBox="0 0 1332 1116" width="333" height="279" xmlns="http://www.w3.org/2000/svg">
<path transform="translate(0)" d="m0 0h1332v1116h-1332z"/>
<path transform="translate(637,303)" d="m0 0h68l32 5 23 6 14 5 25 11 20 10 20 12 18 13 13 11 13 12 14 14 18 22 12 17 12 20 13 27 11 31 7 28 3 21 2 27v21l-2 25-3 22-6 27-10 30-8 18-11 21-10 16-14 19-8 10-11 13-16 16-11 9-8 7-18 13-21 12-15 8-25 11-24 8-22 5-31 4-22 1h-20l-32-2-20-3-24-6-26-9-24-11-19-10-16-10-19-14-11-10-8-7-17-17-11-14-10-13-14-21-10-18-10-21-10-28-7-27-4-24-2-24v-32l2-25 5-27 7-26 11-28 12-25 13-21 12-16 10-13 11-12 9-10 8-7 12-11 19-14 21-13 21-11 27-12 21-7 28-6z" fill="#FEFCFC"/>
<path transform="translate(666,111)" d="m0 0h8l9 7 216 216 8 7 9 10 11 11 8 7 15 16 174 174 1 5-3 12-4 4-97 1-4 4-1 283-1 36-11 5-3 2-7 1h-181l-123 1h-30l-41-1h-282l-10-4-3-3-1-316-6-4-2-5h-97l-2-1-2-12-2-3 1-5 7-9 7-8 22-22h2v-2l8-7 7-7 5-6h2v-2h2v-2h2v-2h2v-2l8-7 7-7 7-8 5-4 5-6h2l2-4 6-5h2l1-151 7-12 2-2h84l9 8 2 6 1 30 6 3 2 2 12-12 9-6 12-11 4-8 7-6 2-3h5l6-11 4-5 7-6 5-6 11-7 13-12 5-9 8-8 4 1 4-6 4-8 15-14 5-4 8-6 11-10 5-8 8-5 13-13 7-11 4-4 6-2 7-7 7-8 5-4zm-29 192-28 4-27 6-22 8-34 16-21 12-17 12-13 10-12 11-11 10-7 8-10 11-9 12-11 15-15 25-10 21-11 28-8 30-4 23-2 25v32l2 24 4 24 7 27 10 28 14 29 11 18 10 14 9 12 9 11 9 10 16 16 8 7 17 13 18 12 22 12 19 9 21 8 19 6 21 5 28 3 20 1h20l22-1 36-5 24-6 24-9 24-11 22-12 12-8 19-14 12-11 8-7 14-14 9-11 16-21 11-17 10-18 10-21 10-28 6-24 4-22 2-19 1-19v-18l-2-27-4-26-7-26-10-28-14-29-11-18-10-14-10-13-9-10-7-8-16-16-8-7-15-12-18-12-17-10-24-12-26-11-22-6-25-5-15-2z" fill="#D06224"/>
<path transform="translate(580,505)" d="m0 0h23v14l1 3 9 1 3-3 1-15h109v15l1 3 5 1 5-3 3-14 2-2h18v26l-5 12-10 10h-6l-3 1-1 11-7 19-6 9-6 8-11 9-8 4-16 4h-19l-16-4-10-5-7-5-5-5-6-8-10-19-3-14-4-3-6-2v-2h-2l-7-9-5-10-1-15z" fill="#FFDF67"/>
<path transform="translate(669,351)" d="m0 0 17 1 16 4 15 5 2 2-1 5-4 11-7 21-2 10v7l1 1h7l4-5 9-21 2-3 4 1 7 7 10 13 9 15 7 19 2 8-1 1-29 1h-149l-12-1 1-9 5-15 8-16 12-15 8-7 5-2 4 9 6 17 1 3 10-1 1-1-1-10-2-8-11-32v-4l24-9z" fill="#FFDF67"/>
<path transform="translate(603,769)" d="m0 0 150 1 56 1v43l-151 1-126-1-1-5 1-39z" fill="#FFDF67"/>
<path transform="translate(590,677)" d="m0 0 19 1 5 8 4 8 7 8 14 7 11 2h44l16-4 8-6 7-11 6-12h21v42l-1 35h-149l-12-1z" fill="#FFDF67"/>
<path transform="translate(812,689)" d="m0 0 5 1 16 8 14 9 12 11 9 10 9 14 8 16 6 19 4 20 1 13-1 4-2 1h-28l-38-1-1-1-2-55-10-2-1-1-1-13z" fill="#FEDF67"/>
<path transform="translate(526,689)" d="m0 0h3l1 4-1 61-1 2-9 1-2 1-1 35-1 20-1 1-39 1h-21l-6-2-1-3v-12l3-19 3-11 7-19 10-16 9-11 14-14 14-10 9-5z" fill="#FFDF67"/>
<path transform="translate(624,622)" d="m0 0 6 2 11 5 21 4h19l19-5 13-6h4v53l-3 6-6 9-5 5-10 2h-42l-11-2-8-7-5-7-2-7-1-9z" fill="#FFDF67"/>
<path transform="translate(569,469)" d="m0 0h190l13 1v19h-203l-1-1v-17z" fill="#FFDF67"/>
<path transform="translate(767,678)" d="m0 0 17 2 11 2 1 1v71h-28l-1-1z" fill="#FFDF67"/>
<path transform="translate(566,679)" d="m0 0h8v75h-29v-71l5-2z" fill="#FFDF67"/>
<path transform="translate(773,785)" d="m0 0h18l3 2v13l-3 1h-19l-3-2v-8l2-5z" fill="#FEFDFD"/>
<path transform="translate(552,785)" d="m0 0h15l5 4v8l-3 3h-17l-5-5 1-7z" fill="#FEFDFD"/>
<path transform="translate(429,330)" d="m0 0 6 1v6l-4 2-3-4z" fill="#FEF6DA"/>
<path transform="translate(547,223)" d="m0 0h2l-1 4-8 7-2 1 1-4z" fill="#F2BD55"/>
<path transform="translate(483,287)" d="m0 0h2l-1 4-9 8-1-3 7-6z" fill="#F2BC54"/>
</svg>
