<?xml version="1.0" encoding="UTF-8"?>
<svg version="1.1" viewBox="0 0 2000 2000" width="500" height="500" xmlns="http://www.w3.org/2000/svg">
<path transform="translate(0)" d="m0 0h2e3v2e3h-2e3z" fill="#FEFDFD"/>
<path transform="translate(992,596)" d="m0 0h9l9 6 10 9 364 364 8 7 56 56 6 9 2 4-1 10-6 8-4 2h-100v313l-2 10-7 6-2 1h-309l-2-2 37-6 23-5 26-9 24-11 21-11 17-11 19-14 10-9 8-7 15-15 8-10 9-11 12-17 10-16 10-18 11-26 8-25 7-30 4-36v-37l-2-21-3-20-8-30-7-20-9-21-8-16-12-20-14-19-11-13-11-12-18-18-14-11-13-10-20-12-27-14-23-10-17-6-24-6-18-3-10-1h-72l-21 3-30 7-24 9-30 14-24 14-10 7-16 12-13 11-7 7-5 4-7 8-11 12-8 11-11 15-9 15-9 16-8 17-10 27-6 21-5 24-2 15-1 20v26l1 19 4 28 7 28 8 24 9 20 10 20 15 23 9 12 11 14 9 11 7 7 8 7 12 11 19 14 16 10 14 8 16 8 16 7 33 11 29 6 28 4-3 2h-312l-6-4-4-6-1-4-1-316h-95l-8-3-5-7-1-3v-8l3-7 96-96h2l2-4 8-8 1-151 3-8h2l1-3 7-3h81l6 3 5 6 2 11v36l8-6 9-10 11-10 1-2h2v-2h2l2-4 52-52h2l2-4 29-29h2l2-4 42-42 8-7 30-30 3-4h2v-2l5-5 3-1 2-4 10-9z" fill="#CD6424"/>
<path transform="translate(909,993)" d="m0 0h19l2 2v7l2 7 1 1h9l2-5 1-11 1-1h106l1 3v9l1 5h10l2-2 2-14 7-1h12l1 1v23l-2 9-9 12-4 3-6 2-3 6-4 13-5 12-8 11-10 10-10 6-12 4-5 1h-18l-15-3-14-7-13-11-8-13-6-14-3-12-6-4-5-3-9-11-4-9-1-13v-12z" fill="#FEE16C"/>
<path transform="translate(994,839)" d="m0 0h13l16 3 12 4 10 4 1 5-4 10-9 31v9l7 1 5-5 9-22 2-2 4 1 7 7 8 10 8 13 5 10 6 20v2l-2 1-44 1h-121l-22-1-1-5 3-12 7-16 8-12 11-12 7-6 4 1 9 24 4 3 7-1 1-1v-7l-5-16-5-18-3-7v-6l15-6 16-4z" fill="#FEE16C"/>
<path transform="translate(920,1258)" d="m0 0h148l68 1 1 1v41l-1 1-36 1h-37l-202-1-1-1-1-28v-13l1-1z" fill="#FEE16C"/>
<path transform="translate(918,1166)" d="m0 0h19l9 17 7 7 8 5 9 3 18 2h28l16-3 10-5 8-8 9-18h20l1 1v48l-1 27-24 1h-108l-26-1-2-1-1-6z" fill="#FEE16C"/>
<path transform="translate(1140,1177)" d="m0 0 6 1 19 10 13 10 15 15 9 13 6 11 7 15 6 20 3 16 1 11-3 4h-45l-22-1-1-1-1-19-1-36-5-2-6-1-1-8z" fill="#FEE16C"/>
<path transform="translate(854,1177)" d="m0 0 3 1v63l-1 2-10 2-1 1-1 17-1 38-1 1-36 1h-26l-4-2-1-4v-10l2-15 6-21 5-12 8-14 9-13 8-8 11-9 14-10z" fill="#FEE16C"/>
<path transform="translate(952,1110)" d="m0 0 5 1 13 6 15 4 7 1h12l18-4 16-6 4-2h3l1 7v42l-5 12-6 8-9 5-4 1-19 1h-11l-17-1-10-4-6-5-6-12-1-5z" fill="#FEE16C"/>
<path transform="translate(898,957)" d="m0 0 202 1v17l-2 2h-191l-9-1-1-1v-17z" fill="#FEE16C"/>
<path transform="translate(897,1167)" d="m0 0h5v74l-3 1h-25l-1-1-1-31v-39l7-2z" fill="#FEE16C"/>
<path transform="translate(1096,1166)" d="m0 0 25 3 3 2v70l-2 1h-18l-8-1-1-11v-63z" fill="#FEE16C"/>
<path transform="translate(1101,1273)" d="m0 0h18l3 3 1 9-2 3-20 1-4-4v-8z" fill="#FEFEFE"/>
<path transform="translate(888,1272)" d="m0 0 9 1 2 3v9l-4 3h-16l-4-3-1-7 5-5z" fill="#FEFEFE"/>
</svg>
